# xmcd CD database file
#
# Track frame offsets:
#	150
#	13513
#	27318
#	41195
#	55608
#	68051
#	81123
#	93998
#	108896
#	122693
#	137355
#	155475
#	172245
#	192477
#	210057
#	224335
#	237626
#	249032
#	260827
#	275344
#	290349
#	303787
#	318749
#	332152
#	346536
#
# Disc length: 4773 seconds
#
# Revision: 0
# Processed by: cddbd v1.5.2PL0 Copyright (c) Steve Scherf et al.
# Submitted via: CDex 1.51
#
DISCID=6112a319
DTITLE=Charlie Parker - The Bebop Revolution 1944 - 1945
DYEAR=1945
DGENRE=Jazz
TTITLE0=Tiny's Tempo
TTITLE1=I'll Always Love You Just The Same
TTITLE2=Romance Without Finance
TTITLE3=Red Cross
TTITLE4=Groovin' High
TTITLE5=All The Things You Are
TTITLE6=Dizzy Atmosphere
TTITLE7=Salt Peanuts
TTITLE8=Shaw' Nuff
TTITLE9=Hot House
TTITLE10=Hallelujah
TTITLE11=Get Happy
TTITLE12=Slam Slam Blues
TTITLE13=Congo Blues
TTITLE14=Takin' Off
TTITLE15=20th Century Blues
TTITLE16=The Street Beat
TTITLE17=Warming Up A Riff
TTITLE18=Billie's Bounce
TTITLE19=Now's The Time
TTITLE20=Anthropology
TTITLE21=Meandering
TTITLE22=Ko-Ko
TTITLE23=Dizzy Boogie
TTITLE24=Flat Foot Floogie
EXTD=YEAR: 1945
EXTT0=
EXTT1=
EXTT2=
EXTT3=
EXTT4=
EXTT5=
EXTT6=
EXTT7=
EXTT8=
EXTT9=
EXTT10=
EXTT11=
EXTT12=
EXTT13=
EXTT14=
EXTT15=
EXTT16=
EXTT17=
EXTT18=
EXTT19=
EXTT20=
EXTT21=
EXTT22=
EXTT23=
EXTT24=
PLAYORDER=
